<svg xmlns="http://www.w3.org/2000/svg" viewBox="0 0 307.5 31.57"><title>Autodesk logo - Brandlogos.net</title><path d="M358.48,527l26.83-16.71h13.93a.82.82,0,0,1,.82.82.69.69,0,0,1-.39.68l-13.18,7.91a2.69,2.69,0,0,0-1.16,2.31l0,5h16.75v-29a1,1,0,0,0-1.07-1H385l-26.76,16.64V527Z" transform="translate(-358.25 -496.21)"/><path d="M578.52,527h24.14v-6.49H586.18V515.1h13.27v-6.51H586.18v-5.06h16.48V497H578.52Z" transform="translate(-358.25 -496.21)"/><path d="M426.87,497l-11.5,30h7.9l2-5.62h12.84l2,5.62h8.17l-11.64-30Zm.68,18,4.2-11.75L435.88,515Z" transform="translate(-358.25 -496.21)"/><path d="M481,503.53h9.67V527h7.63V503.53H508V497H481Z" transform="translate(-358.25 -496.21)"/><path d="M469.92,515.48c0,3.9-2.4,5.47-6.49,5.47s-6.56-1.65-6.56-5.47V496.93h-7.65v19.43c0,8.66,7.72,11.36,14.19,11.36s14.12-2.7,14.12-11.36V496.93h-7.65v18.55Z" transform="translate(-358.25 -496.21)"/><path d="M665.75,497h-9.1l-10.9,12.18V497h-7.65l0,30h7.62v-11.4L656.08,527h9.67l-13.94-14.81Z" transform="translate(-358.25 -496.21)"/><path d="M560.54,497h-14v30h14c10.75,0,13.71-4,13.71-15.22C574.25,501.28,571.41,497,560.54,497Zm-.3,23.51h-6.08v-17h6.08c4.79,0,6.22,1.31,6.22,8.28C566.46,518.18,564.85,520.54,560.23,520.54Z" transform="translate(-358.25 -496.21)"/><path d="M625.78,509.38l-7-.79c-4.08-.45-5.09-1.47-5.09-2.84,0-1.54,2.09-2.92,6.19-2.92,3.93,0,6,1.47,6.36,3.67h7.49c-.38-6.35-5.68-10.29-13.44-10.29-9.23,0-13.86,3.67-13.86,10.16,0,5.28,3.07,7.76,9.44,8.44l7.08.75c2.7.3,3.93,1.34,3.93,2.7,0,1.54-1.81,2.92-6.15,2.92-5,0-7-1.27-7.38-3.83H606c.34,6.9,4.83,10.43,14.46,10.43,8.8,0,13.71-3.86,13.71-9.68C634.2,513,631.28,510,625.78,509.38Z" transform="translate(-358.25 -496.21)"/><path d="M525.77,496.21c-10.9,0-16.55,6.71-16.55,15.74s5.65,15.81,16.55,15.81S542.36,521,542.36,512,536.71,496.21,525.77,496.21Zm0,24.81c-5.65,0-8.76-3.45-8.76-9.07s3.11-9,8.76-9,8.76,3.49,8.76,9S531.47,521,525.77,521Z" transform="translate(-358.25 -496.21)"/></svg>