<svg xmlns="http://www.w3.org/2000/svg" viewBox="0 0 427.5 51.47"><title>Exness logo - Brandlogos.net</title><path d="M323.24,518.4a22.16,22.16,0,0,1-.59-5.35c0-9.52,6.84-17.55,24.39-17.55h9.22a47.4,47.4,0,0,0-6.84,4.16C345,502.93,323.24,518.4,323.24,518.4Zm72.89-7.14,33.62-25H413.08l-25.29,19-6.54-4.16H365.48l14.28,10.41-11,9.22c-5.65,4.76-13.68,11.3-25.29,11.3-4.76,0-11.3-.89-14.87-5.06l54.14-40.46H350c-20.23,0-30.64,11.3-30.64,25.29a22,22,0,0,0,1.49,8.33l-22.61,16.36H315.5l10.41-7.73c3.87,4.76,11.9,8.92,20.23,8.92,14,0,26.77-8.92,31.24-12.49l10.11-8,26.77,19.34H433Z" transform="translate(-298.25 -486.27)" style="fill:#ffcf01"/><path d="M628.77,507.09c-.89-5.35-5.35-7.73-9.52-7.73a9.49,9.49,0,0,0-9.52,7.73Zm9.82,14.58c-1.19,3-5.06,11.6-19,11.6-6.54,0-11.3-1.78-15.17-5.65-4.46-4.16-6.25-9.22-6.25-15.17A22.05,22.05,0,0,1,604.07,497a21.13,21.13,0,0,1,15.17-5.65c8,0,12.79,3.27,15.47,6.54,4.16,5.06,4.76,11,4.76,15.47v.89H609.73a10.14,10.14,0,0,0,2.08,6.54,9.73,9.73,0,0,0,8,3.57,10.51,10.51,0,0,0,9.22-5.06l9.52,2.38ZM474.66,507.09c-.89-5.35-5.35-7.73-9.52-7.73a9.49,9.49,0,0,0-9.52,7.73Zm9.82,14.58c-1.19,3-5.06,11.6-19,11.6-6.54,0-11.3-1.78-15.17-5.65-4.46-4.16-6.25-9.22-6.25-15.17A22.05,22.05,0,0,1,450,497a21.13,21.13,0,0,1,15.17-5.65c8,0,12.79,3.27,15.47,6.54,4.16,5.06,4.76,11,4.76,15.47v.89H455.62a10.14,10.14,0,0,0,2.08,6.54,9.73,9.73,0,0,0,8,3.57,10.51,10.51,0,0,0,9.22-5.06Zm61.88-29.45h12.2v6.54c2.38-2.68,6.25-7.14,13.39-7.14,8.92,0,14,4.76,14,17.25v23.5h-11.6V509.47c0-4.76-2.38-7.73-5.95-7.73a12.8,12.8,0,0,0-9.82,5.06v25h-12.2Zm145.77,35.7,3.27-8.63a28.69,28.69,0,0,0,14.87,5.06c3.57,0,5.06-1.19,5.06-3v-.3c0-2.38-4.16-3.27-8.63-4.76-5.95-1.78-12.49-4.16-12.49-12.2s6.84-12.79,15.17-12.79A27.44,27.44,0,0,1,724,495.19l-2.38,8.63c-4.16-2.38-9.22-3.87-12.2-3.87s-4.46,1.19-4.46,2.68v.3c0,2.38,3.87,3.27,8.33,4.76,5.95,1.78,12.49,4.46,12.49,11.9v.3c0,8.92-6.84,13.09-16.06,13.09-5.35,0-11.9-.89-17.55-5.06Zm-42.24,0,3.27-8.63A28.69,28.69,0,0,0,668,524.35c3.27,0,5.06-1.19,5.06-3v-.3c0-2.38-4.16-3.27-8.63-4.76-5.95-1.78-12.49-4.16-12.49-12.2s6.84-12.79,15.17-12.79a27.44,27.44,0,0,1,14.58,3.87l-2.38,8.63c-4.16-2.38-9.22-3.87-12.2-3.87s-4.46,1.19-4.46,2.68v.3c0,2.38,3.87,3.27,8.33,4.76,5.95,1.78,12.49,4.46,12.49,11.9v.3c0,8.92-6.84,13.09-16.06,13.09C662.09,533,655.54,532.08,649.89,527.92ZM513,503.82l8.33-11.6h13.09l-15.17,19.63,15.77,20.53H521.37l-8.92-12.49-8.92,12.49H490.43l16.06-20.53-15.17-19.63H505Z" transform="translate(-298.25 -486.27)"/></svg>