<svg xmlns="http://www.w3.org/2000/svg" width="300.03" height="55.51" viewBox="0 0 300.03 55.51"><title>AnyDesk logo - Brandlogos.net</title><polygon points="46.63 0.01 41.13 5.51 60.44 24.71 41.13 44.02 46.63 49.41 71.33 24.71 46.63 0.01" style="fill:#ef443b"/><rect x="369.23" y="491.49" width="35" height="35" transform="translate(-608.62 -61.7) rotate(-45)" style="fill:#ef443b"/><path d="M468.32,527.36l-2.7-8.7h-13.3l-2.7,8.7h-8.4l13-36.8h9.5l13,36.8Zm-4.5-15.2c-2.5-7.9-3.8-12.4-4.1-13.4s-.6-1.9-.7-2.5c-.6,2.1-2.1,7.4-4.7,15.9Z" transform="translate(-361.98 -484.24)"/><path d="M506.52,527.36h-7.6v-16.3a7.84,7.84,0,0,0-1.1-4.5,3.94,3.94,0,0,0-3.4-1.5,5.12,5.12,0,0,0-4.6,2.1c-.9,1.4-1.4,3.8-1.4,7.1v13.2h-7.6v-28h5.8l1,3.6h.4a8.08,8.08,0,0,1,3.5-3.1,11.91,11.91,0,0,1,5.1-1c3.3,0,5.7.9,7.4,2.6s2.5,4.3,2.5,7.6Z" transform="translate(-361.98 -484.24)"/><path d="M509.62,499.36H518l5.3,15.8a17.13,17.13,0,0,1,.9,4.9h.2a20.47,20.47,0,0,1,1.1-4.9l5.2-15.8h8.2L527,531a14.26,14.26,0,0,1-4.6,6.6,11.53,11.53,0,0,1-7.1,2.2,17.22,17.22,0,0,1-3.9-.4v-6.1a13.86,13.86,0,0,0,3,.3,5.31,5.31,0,0,0,3.5-1.2,8.51,8.51,0,0,0,2.4-3.7l.5-1.4Z" transform="translate(-361.98 -484.24)"/><path d="M573.82,508.66c0,6-1.7,10.6-5.1,13.9s-8.4,4.8-14.9,4.8h-10.4v-36.6h11.5c6,0,10.6,1.6,13.9,4.7S573.82,503.06,573.82,508.66Zm-8.1.2c0-7.9-3.5-11.8-10.4-11.8h-4.1v23.8h3.3C562,521,565.72,517,565.72,508.86Z" transform="translate(-361.98 -484.24)"/><path d="M592.22,527.86c-4.5,0-8-1.2-10.6-3.7s-3.8-6-3.8-10.6,1.2-8.3,3.5-10.9,5.6-3.8,9.7-3.8,7,1.1,9.2,3.4,3.3,5.4,3.3,9.3v3.7h-18.1a7.38,7.38,0,0,0,1.9,5.1,6.9,6.9,0,0,0,5.1,1.8,20.24,20.24,0,0,0,9.5-2.2v5.9a15.67,15.67,0,0,1-4.3,1.5A26.09,26.09,0,0,1,592.22,527.86Zm-1.1-23.6a4.9,4.9,0,0,0-3.8,1.5,7.68,7.68,0,0,0-1.6,4.4h10.7a6.18,6.18,0,0,0-1.5-4.4A4.9,4.9,0,0,0,591.12,504.26Z" transform="translate(-361.98 -484.24)"/><path d="M629.42,519.06a7.74,7.74,0,0,1-3,6.6c-2,1.5-5,2.3-9,2.3a26.16,26.16,0,0,1-5.2-.4,23.38,23.38,0,0,1-4-1.2v-6.3a26.84,26.84,0,0,0,4.8,1.7,17.27,17.27,0,0,0,4.7.7q4.2,0,4.2-2.4a2,2,0,0,0-.6-1.5,8.67,8.67,0,0,0-1.9-1.3c-.9-.5-2.1-1-3.6-1.7a19.49,19.49,0,0,1-4.7-2.5,7.65,7.65,0,0,1-2.2-2.6,8.15,8.15,0,0,1-.7-3.7,6.81,6.81,0,0,1,2.9-5.8c1.9-1.4,4.7-2,8.2-2a22.27,22.27,0,0,1,9.8,2.2l-2.3,5.5q-2.1-.9-3.9-1.5a11.93,11.93,0,0,0-3.7-.6c-2.3,0-3.4.6-3.4,1.8a2.24,2.24,0,0,0,1.1,1.8,29.36,29.36,0,0,0,4.8,2.2,20.56,20.56,0,0,1,4.8,2.5,8.3,8.3,0,0,1,2.3,2.7A11,11,0,0,1,629.42,519.06Z" transform="translate(-361.98 -484.24)"/><path d="M641.52,512.16l3.3-4.3,7.8-8.5h8.6l-11.1,12.1,11.9,15.9h-8.8l-8.1-11.3-3.3,2.6v8.7h-7.6v-39h7.6v17.4l-.4,6.4Z" transform="translate(-361.98 -484.24)"/></svg>