<svg xmlns="http://www.w3.org/2000/svg" xmlns:xlink="http://www.w3.org/1999/xlink" width="234.97" height="69.21" viewBox="0 0 234.97 69.21"><defs><clipPath id="a" transform="translate(-394.51 -477.4)"><path d="M446.24,494.48a1.46,1.46,0,0,0-1.66-1.19,1.39,1.39,0,0,0-.79.4l-7.5,7.5L430.41,490a1.43,1.43,0,0,0-1.95-.61,1.67,1.67,0,0,0-.61.61l-3.21,6.13L416.57,481a1.43,1.43,0,0,0-1.95-.58,1.5,1.5,0,0,0-.76,1l-7.82,50,20.87,11.71a4.38,4.38,0,0,0,4.22,0l21.05-11.71Z" style="fill:none"/></clipPath><linearGradient id="b" x1="415.04" y1="384.37" x2="412.15" y2="382.86" gradientTransform="translate(0 129.99)" gradientUnits="userSpaceOnUse"><stop offset="0" stop-color="#a52714"/><stop offset="0.4" stop-color="#a52714" stop-opacity="0.5"/><stop offset="0.8" stop-color="#a52714" stop-opacity="0"/></linearGradient><linearGradient id="c" x1="427.29" y1="380.18" x2="426" y2="378.89" gradientTransform="translate(0 129.99)" gradientUnits="userSpaceOnUse"><stop offset="0" stop-color="#a52714" stop-opacity="0.8"/><stop offset="0.5" stop-color="#a52714" stop-opacity="0.21"/><stop offset="1" stop-color="#a52714" stop-opacity="0"/></linearGradient><linearGradient id="d" x1="-335.38" y1="-746.55" x2="-317.33" y2="-764.59" gradientTransform="matrix(2.67, 0, 0, -2.67, 1300.27, -1501.83)" gradientUnits="userSpaceOnUse"><stop offset="0" stop-color="#fff" stop-opacity="0.1"/><stop offset="1" stop-color="#fff" stop-opacity="0"/></linearGradient></defs><title>Firebase logo - Brandlogos.net</title><rect width="69.21" height="69.21" style="fill:none"/><g style="clip-path:url(#a)"><path d="M406,531.46l7.82-50a1.41,1.41,0,0,1,1.66-1.19,1.5,1.5,0,0,1,1,.76l8.07,15.07,3.21-6.13a1.43,1.43,0,0,1,1.95-.61,1.67,1.67,0,0,1,.61.61l21.77,41.45Z" transform="translate(-394.51 -477.4)" style="fill:#ffa000"/><path d="M432.72,480.64l-38.21-3.24V546.6L406,531.46Z" transform="translate(-394.51 -477.4)" style="opacity:0.11999999731779099;isolation:isolate;fill:url(#b)"/><path d="M433,512l-8.4-15.9L406,531.46Z" transform="translate(-394.51 -477.4)" style="fill:#f57c00"/><path d="M394.51,477.4h69.21V546.6H394.51Z" transform="translate(-394.51 -477.4)" style="opacity:0.20000000298023224;isolation:isolate;fill:url(#c)"/><path d="M452.18,531.46l-6-37a1.46,1.46,0,0,0-1.66-1.19,1.39,1.39,0,0,0-.79.4L406,531.46l20.87,11.71a4.38,4.38,0,0,0,4.22,0Z" transform="translate(-394.51 -477.4)" style="fill:#ffca28"/><path d="M446.24,494.48a1.46,1.46,0,0,0-1.66-1.19,1.39,1.39,0,0,0-.79.4l-7.5,7.5L430.41,490a1.43,1.43,0,0,0-1.95-.61,1.67,1.67,0,0,0-.61.61l-3.21,6.13L416.57,481a1.43,1.43,0,0,0-1.95-.58,1.5,1.5,0,0,0-.76,1l-7.82,50h0l0,0,.22.11,30-30.06,7.5-7.5a1.44,1.44,0,0,1,2.05,0,1.29,1.29,0,0,1,.4.79l5.91,36.66.07,0Zm-40.12,36.91,7.75-49.53a1.41,1.41,0,0,1,1.66-1.19,1.5,1.5,0,0,1,1,.76l8.07,15.07,3.21-6.13a1.43,1.43,0,0,1,1.95-.61,1.67,1.67,0,0,1,.61.61l5.77,11Z" transform="translate(-394.51 -477.4)" style="fill:#fff;fill-opacity:0.20000000298023224"/><path d="M431.13,542.82a4.38,4.38,0,0,1-4.22,0l-20.83-11.68,0,.32,20.87,11.71a4.38,4.38,0,0,0,4.22,0l21.05-11.71,0-.32Z" transform="translate(-394.51 -477.4)" style="fill:#a52714;opacity:0.20000000298023224;isolation:isolate"/><path d="M446.24,494.48a1.46,1.46,0,0,0-1.66-1.19,1.39,1.39,0,0,0-.79.4l-7.5,7.5L430.41,490a1.43,1.43,0,0,0-1.95-.61,1.67,1.67,0,0,0-.61.61l-3.21,6.13L416.57,481a1.43,1.43,0,0,0-1.95-.58,1.5,1.5,0,0,0-.76,1l-7.82,50,20.87,11.71a4.38,4.38,0,0,0,4.22,0l21.05-11.71Z" transform="translate(-394.51 -477.4)" style="fill:url(#d)"/></g><g style="opacity:0.5400000214576721"><path d="M475.25,530H471V497h19.28v4.07h-15v10.85h13.59v4H475.29V530Z" transform="translate(-394.51 -477.4)"/><path d="M497.6,501.76a3,3,0,1,1,.87-2.13A3,3,0,0,1,497.6,501.76Zm0,28.26h-4.25v-22.6h4.25Z" transform="translate(-394.51 -477.4)"/><path d="M506.47,530h-4.25v-22.6h4.07v3.68h.18a5.66,5.66,0,0,1,2.67-3,7.61,7.61,0,0,1,3.89-1.19,8.21,8.21,0,0,1,3.17.54l-1.62,4a6.32,6.32,0,0,0-2.27-.32,5.49,5.49,0,0,0-4.07,1.84,6.53,6.53,0,0,0-1.77,4.76Z" transform="translate(-394.51 -477.4)"/><path d="M526.44,530.78a10.9,10.9,0,0,1-8.33-3.42,12.14,12.14,0,0,1-3.21-8.61,12.62,12.62,0,0,1,3.1-8.51,10.11,10.11,0,0,1,8-3.57,10.36,10.36,0,0,1,8,3.28,12.44,12.44,0,0,1,3,8.76l0,.79H519.15a7.78,7.78,0,0,0,2.27,5.41,6.86,6.86,0,0,0,4.9,2c3,0,5.12-1.3,6.2-3.89l3.78,1.59a9.93,9.93,0,0,1-3.64,4.4A10.61,10.61,0,0,1,526.44,530.78ZM532.53,516a6.06,6.06,0,0,0-1.77-3.68,6.37,6.37,0,0,0-4.87-1.77,6.09,6.09,0,0,0-4.07,1.48,7.52,7.52,0,0,0-2.38,4h13.08Z" transform="translate(-394.51 -477.4)"/><path d="M552,530.78a9.44,9.44,0,0,1-4.65-1.12,7.69,7.69,0,0,1-3.06-2.78h-.18V530H540V497h4.25v10.42l-.18,3.14h.18a8,8,0,0,1,3.06-2.78,9.85,9.85,0,0,1,4.65-1.12,10,10,0,0,1,7.57,3.46,13.19,13.19,0,0,1,0,17.16A9.88,9.88,0,0,1,552,530.78Zm-.72-3.89a6.78,6.78,0,0,0,5.08-2.23,9.28,9.28,0,0,0,0-11.82,6.78,6.78,0,0,0-5.08-2.23,6.69,6.69,0,0,0-5.08,2.2,8.42,8.42,0,0,0-2.09,5.95,8.26,8.26,0,0,0,2.09,5.95A6.74,6.74,0,0,0,551.23,526.89Z" transform="translate(-394.51 -477.4)"/><path d="M573.26,530.78a8.81,8.81,0,0,1-6-2.09,7.38,7.38,0,0,1,.43-11.28,11.56,11.56,0,0,1,7.06-2.09,12.34,12.34,0,0,1,6.13,1.37V516a5.15,5.15,0,0,0-1.69-4,6.09,6.09,0,0,0-4.18-1.51,6.64,6.64,0,0,0-3.35.87,4.35,4.35,0,0,0-2.05,2.41l-3.89-1.66a8.74,8.74,0,0,1,3.1-3.75,9.93,9.93,0,0,1,6.09-1.73,10.47,10.47,0,0,1,7.21,2.52,9,9,0,0,1,2.85,7.14V530h-4.07v-3.14h-.18A8.33,8.33,0,0,1,573.26,530.78Zm.68-3.89a6.83,6.83,0,0,0,4.76-1.95,6,6,0,0,0,2.16-4.65,8.42,8.42,0,0,0-5.41-1.48,7,7,0,0,0-4.65,1.33,4.06,4.06,0,0,0-1.59,3.14,3,3,0,0,0,1.44,2.63A5.75,5.75,0,0,0,573.94,526.89Z" transform="translate(-394.51 -477.4)"/><path d="M596.72,530.78a10.08,10.08,0,0,1-6.24-1.84,10.71,10.71,0,0,1-3.6-4.61l3.78-1.59A6.23,6.23,0,0,0,596.8,527a5.57,5.57,0,0,0,3.24-.87,2.73,2.73,0,0,0,1.26-2.31c0-1.48-1-2.49-3.1-3l-4.58-1.12a11.12,11.12,0,0,1-4.11-2.09,5.07,5.07,0,0,1-1.95-4.18,5.77,5.77,0,0,1,2.67-4.87,11.33,11.33,0,0,1,11.64-.5,7.4,7.4,0,0,1,3.35,3.89l-3.68,1.51c-.83-2-2.56-3-5.15-3a5.84,5.84,0,0,0-3.17.79,2.4,2.4,0,0,0-1.3,2.13c0,1.3,1,2.16,3,2.63l4.47,1a8.72,8.72,0,0,1,4.72,2.52,6.14,6.14,0,0,1,1.51,4.07,6.34,6.34,0,0,1-2.49,5.08A9.7,9.7,0,0,1,596.72,530.78Z" transform="translate(-394.51 -477.4)"/><path d="M618.89,530.78a10.9,10.9,0,0,1-8.33-3.42,12.14,12.14,0,0,1-3.21-8.61,12.62,12.62,0,0,1,3.1-8.51,10.11,10.11,0,0,1,8-3.57,10.36,10.36,0,0,1,8,3.28,12.44,12.44,0,0,1,3,8.76l0,.79H611.61a7.78,7.78,0,0,0,2.27,5.41,6.86,6.86,0,0,0,4.9,2c3,0,5.12-1.3,6.2-3.89l3.78,1.59a9.93,9.93,0,0,1-3.64,4.4A10.61,10.61,0,0,1,618.89,530.78ZM625,516a6.06,6.06,0,0,0-1.77-3.68,6.37,6.37,0,0,0-4.87-1.77,6.09,6.09,0,0,0-4.07,1.48,7.52,7.52,0,0,0-2.38,4H625Z" transform="translate(-394.51 -477.4)"/></g></svg>