<svg xmlns="http://www.w3.org/2000/svg" width="192.97" height="34.03" viewBox="0 0 192.97 34.03"><title>Lumion logo - Brandlogos.net</title><path d="M563.39,526.17c4.69,0,8-1.17,10.23-3.52s3.35-5.87,3.35-10.73c0-4.69-1.17-8.38-3.35-10.73s-5.7-3.35-10.23-3.35c-4.69,0-8,1.17-10.23,3.35-2.18,2.35-3.35,5.87-3.35,10.39,0,5,1.17,8.72,3.35,10.9C555.34,525,558.69,526.17,563.39,526.17Zm-5.53-21.46a6.62,6.62,0,0,1,5.53-2.35c2.51,0,4.36.67,5.53,2.35,1.17,1.51,1.84,4,1.84,7.21a12.34,12.34,0,0,1-1.84,7.21,7.69,7.69,0,0,1-11.07,0c-1.17-1.51-1.84-4-1.84-7.38C556.18,508.56,556.68,506.22,557.85,504.71Z" transform="translate(-415.51 -494.98)" style="fill:#12100b"/><polygon points="171.18 9.89 182.91 30.68 189.62 30.68 189.62 3.35 183.59 3.35 183.92 22.97 172.69 3.35 165.48 3.35 165.48 30.68 171.35 30.68 171.18 9.89" style="fill:#12100b"/><path d="M455.42,522.65a7.29,7.29,0,0,0,3.35,2.18,17,17,0,0,0,5.7.67h7.21V521H464.8a17.29,17.29,0,0,1-3.35-.34,4.28,4.28,0,0,1-2-1.34,2.13,2.13,0,0,1-.67-1.51,17.38,17.38,0,0,1-.17-3.35v-16.1h-5.7V514.6a13.46,13.46,0,0,0,.67,5A8.16,8.16,0,0,0,455.42,522.65Z" transform="translate(-415.51 -494.98)" style="fill:#12100b"/><path d="M475.7,522.14a11.07,11.07,0,0,0,4,2.85,16.83,16.83,0,0,0,6.2.84,21.32,21.32,0,0,0,6.2-.84,8.84,8.84,0,0,0,4-2.85,4.42,4.42,0,0,0,1.17-2.68,18.49,18.49,0,0,0,.34-4.69V498.34H492V514.6c0,2.51-.5,4.36-1.34,5.37-1,1-2.51,1.51-4.69,1.51-2.35,0-3.86-.5-4.69-1.51s-1.34-2.68-1.34-5.37V498.34h-5.7v16.43a32,32,0,0,0,.34,4.69A5.67,5.67,0,0,0,475.7,522.14Z" transform="translate(-415.51 -494.98)" style="fill:#12100b"/><polygon points="93.72 30.68 93.22 9.05 100.43 30.68 106.46 30.68 113.5 9.39 113 30.68 118.7 30.68 118.7 3.35 110.15 3.35 103.28 24.31 96.4 3.35 87.85 3.35 87.85 30.68 93.72 30.68" style="fill:#12100b"/><rect x="124.4" y="3.35" width="6.04" height="27.33" style="fill:#12100b"/><rect width="192.97" height="34.03" style="fill:none"/><path d="M446,498.34V525.5H429.1c0-.6.07-1.23.15-1.84a17.6,17.6,0,0,1,.56-2.88c.06-.22.16-.27.36-.24l1,.16a.21.21,0,0,1,.16.1,1.62,1.62,0,0,0,1,.75,3.41,3.41,0,0,0,1.66.06,12.41,12.41,0,0,0,3.87-1.37,11.69,11.69,0,0,0,3-2.39c.52-.57,1-1.17,1.56-1.82a2.92,2.92,0,0,0-.39-.09c-.6-.06-1.2-.15-1.8-.15a16.28,16.28,0,0,0-2.56.07,12,12,0,0,0-4.77,1.78,3.21,3.21,0,0,0-1.81,2.38c-.31,0-.56,0-.87-.09-.13,0-.13-.16-.11-.22.17-.53.33-1.07.54-1.57.48-1.12,1-2.24,1.5-3.34s1-2,1.49-3c.64-1.23,1.32-2.43,2-3.65.5-1,1-2,1.46-3a18.53,18.53,0,0,0,1.2-3.45,16.59,16.59,0,0,0,.49-3.31H446Z" transform="translate(-415.51 -494.98)" style="fill:#41748d"/><path d="M437.43,498.34c0,.24,0,.49-.07.73v0s0,0,0,.05l0,.1c-.16.76-.34,1.52-.55,2.28a20,20,0,0,1-1.68,4c-.68,1.29-1.43,2.53-2.15,3.79l-.8,1.32c-.31-.19-.62-.35-.91-.54a.24.24,0,0,1-.09-.23,2.74,2.74,0,0,0,0-2.14c-.26-.73-.59-1.43-.92-2.13a9.41,9.41,0,0,0-1.68-2.39,14.51,14.51,0,0,0-1.75-1.56c-.69-.53-1.44-1-2.17-1.45a.61.61,0,0,0-.19,0c0,.07,0,.11,0,.16a14.68,14.68,0,0,0,.5,4.37,11,11,0,0,0,1.33,3,10,10,0,0,0,1.91,2.38,2,2,0,0,0,2.49.36l1.17.71a1,1,0,0,1-.06.11c-.61,1.12-1.26,2.23-1.83,3.36-.49,1-.92,2-1.35,2.95a25.32,25.32,0,0,0-1.88,7.88h-7.85V498.33h18.56Z" transform="translate(-415.51 -494.98)" style="fill:#41748d"/><path d="M430.1,519.71c0,.06,0,.2.11.22.31.05.57.06.87.09a3.21,3.21,0,0,1,1.81-2.38,12,12,0,0,1,4.77-1.78,16.27,16.27,0,0,1,2.56-.07c.59,0,1.2.09,1.8.15a3.21,3.21,0,0,1,.39.09c-.55.65-1,1.25-1.56,1.82a11.69,11.69,0,0,1-3,2.39,12.42,12.42,0,0,1-3.87,1.37,3.41,3.41,0,0,1-1.66-.06,1.61,1.61,0,0,1-1-.75.21.21,0,0,0-.16-.1l-1-.16c-.19,0-.3,0-.36.24a17.42,17.42,0,0,0-.56,2.88c-.07.62-.11,1.24-.15,1.84h-2.38a25.32,25.32,0,0,1,1.88-7.88c.43-1,.86-2,1.35-2.95.58-1.14,1.23-2.24,1.83-3.36a1.2,1.2,0,0,0,.06-.11l-1.17-.71a2,2,0,0,1-2.49-.37,10,10,0,0,1-1.91-2.38,11,11,0,0,1-1.33-3,14.68,14.68,0,0,1-.5-4.37c0-.05,0-.1,0-.16a.62.62,0,0,1,.19,0c.73.48,1.48.92,2.17,1.45a14.36,14.36,0,0,1,1.75,1.56,9.41,9.41,0,0,1,1.68,2.39c.33.71.66,1.4.92,2.13a2.74,2.74,0,0,1,0,2.14.24.24,0,0,0,.09.23c.29.19.6.36.91.54l.8-1.32c.72-1.26,1.47-2.5,2.15-3.79a19.87,19.87,0,0,0,1.68-4c.21-.76.39-1.52.55-2.28l0-.1s0,0,0-.05v0c0-.24,0-.48.07-.73h1.32a16.71,16.71,0,0,1-.49,3.31,18.49,18.49,0,0,1-1.2,3.45c-.48,1-1,2-1.46,3-.64,1.23-1.32,2.43-2,3.65-.51,1-1,2-1.49,3s-1,2.22-1.5,3.34C430.43,518.64,430.27,519.17,430.1,519.71Z" transform="translate(-415.51 -494.98)" style="fill:#fff"/><path d="M437.43,498.34c0,.24,0,.49-.07.73v0s0,0,0,.05l0,.1c-.16.76-.34,1.52-.55,2.28a20,20,0,0,1-1.68,4c-.68,1.29-1.43,2.53-2.15,3.79l-.8,1.32c-.31-.19-.62-.35-.91-.54a.24.24,0,0,1-.09-.23,2.74,2.74,0,0,0,0-2.14c-.26-.73-.59-1.43-.92-2.13a9.41,9.41,0,0,0-1.68-2.39,14.51,14.51,0,0,0-1.75-1.56c-.69-.53-1.44-1-2.17-1.45a.61.61,0,0,0-.19,0c0,.07,0,.11,0,.16a14.68,14.68,0,0,0,.5,4.37,11,11,0,0,0,1.33,3,10,10,0,0,0,1.91,2.38,2,2,0,0,0,2.49.36l1.17.71a1,1,0,0,1-.06.11c-.61,1.12-1.26,2.23-1.83,3.36-.49,1-.92,2-1.35,2.95a25.32,25.32,0,0,0-1.88,7.88h-7.85V498.33h18.56Z" transform="translate(-415.51 -494.98)" style="fill:none"/><path d="M446,498.34V525.5H429.1c0-.6.07-1.23.15-1.84a17.6,17.6,0,0,1,.56-2.88c.06-.22.16-.27.36-.24l1,.16a.21.21,0,0,1,.16.1,1.62,1.62,0,0,0,1,.75,3.41,3.41,0,0,0,1.66.06,12.41,12.41,0,0,0,3.87-1.37,11.69,11.69,0,0,0,3-2.39c.52-.57,1-1.17,1.56-1.82a2.92,2.92,0,0,0-.39-.09c-.6-.06-1.2-.15-1.8-.15a16.28,16.28,0,0,0-2.56.07,12,12,0,0,0-4.77,1.78,3.21,3.21,0,0,0-1.81,2.38c-.31,0-.56,0-.87-.09-.13,0-.13-.16-.11-.22.17-.53.33-1.07.54-1.57.48-1.12,1-2.24,1.5-3.34s1-2,1.49-3c.64-1.23,1.32-2.43,2-3.65.5-1,1-2,1.46-3a18.53,18.53,0,0,0,1.2-3.45,16.59,16.59,0,0,0,.49-3.31H446Z" transform="translate(-415.51 -494.98)" style="fill:none"/></svg>