<?xml version="1.0" encoding="iso-8859-1"?>
<!-- Generator: Adobe Illustrator 19.0.0, SVG Export Plug-In . SVG Version: 6.00 Build 0)  -->
<svg version="1.1" id="Layer_1" xmlns="http://www.w3.org/2000/svg" xmlns:xlink="http://www.w3.org/1999/xlink" x="0px" y="0px"
	 viewBox="0 0 496 496" style="enable-background:new 0 0 496 496;" xml:space="preserve">
<g>
	<g>
		<g>
			<path d="M496,0H0v368h86.456c-13.312,24.344-21.248,52.024-22.288,81.424C54.792,452.688,48,461.52,48,472
				c0,13.232,10.768,24,24,24s24-10.768,24-24c0-10.296-6.552-19.024-15.672-22.424c1.136-29.848,10.048-57.664,24.84-81.576h55.216
				c1.592,17.728,8.504,34.296,19.88,48H168v16h16v16h-16v16h16v32h128v-32h16v-16h-16v-16h16v-16h-12.256
				c11.376-13.704,18.288-30.272,19.88-48h55.216c14.784,23.912,23.704,51.728,24.84,81.576C406.552,452.976,400,461.704,400,472
				c0,13.232,10.768,24,24,24s24-10.768,24-24c0-10.48-6.792-19.312-16.168-22.576c-1.04-29.4-8.968-57.08-22.288-81.424H496V0z
				 M72,480c-4.408,0-8-3.592-8-8c0-4.408,3.592-8,8-8s8,3.592,8,8C80,476.408,76.408,480,72,480z M424,464c4.408,0,8,3.592,8,8
				c0,4.408-3.592,8-8,8c-4.408,0-8-3.592-8-8C416,467.592,419.592,464,424,464z M116.32,352
				c17.432-22.032,40.168-39.688,66.392-50.792c-12.384,13.736-20.536,31.336-22.304,50.792H116.32z M296,480h-96v-16h96V480z
				 M296,448h-96v-16h96V448z M298.4,411.376l-2.4,2.352V416h-40v-25.136c13.76-3.576,24-16,24-30.864c0-17.648-14.352-32-32-32
				s-32,14.352-32,32c0,14.864,10.24,27.288,24,30.864V416h-40v-2.272l-2.4-2.352C183.672,397.704,176,379.464,176,360
				c0-39.696,32.304-72,72-72s72,32.304,72,72C320,379.464,312.328,397.704,298.4,411.376z M248,376c-8.824,0-16-7.176-16-16
				c0-8.824,7.176-16,16-16c8.824,0,16,7.176,16,16C264,368.824,256.824,376,248,376z M335.592,352
				c-1.768-19.456-9.92-37.056-22.304-50.792c26.216,11.104,48.96,28.76,66.392,50.792H335.592z M480,352h-80.32
				c-19.12-27.8-45.68-50.08-76.776-64h94.568c3.312,9.288,12.112,16,22.528,16c13.232,0,24-10.768,24-24s-10.768-24-24-24
				c-10.416,0-19.216,6.712-22.528,16H78.528c-3.312-9.288-12.112-16-22.528-16c-13.232,0-24,10.768-24,24s10.768,24,24,24
				c10.416,0,19.216-6.712,22.528-16h94.568C142,301.92,115.44,324.2,96.32,352H16V80h464V352z M432,280c0-4.408,3.592-8,8-8
				c4.408,0,8,3.592,8,8c0,4.408-3.592,8-8,8C435.592,288,432,284.408,432,280z M64,280c0,4.408-3.592,8-8,8s-8-3.592-8-8
				c0-4.408,3.592-8,8-8S64,275.592,64,280z M480,64H16V16h464V64z"/>
			<rect x="32" y="32" width="48" height="16"/>
			<rect x="96" y="32" width="16" height="16"/>
			<path d="M160,96H32v144h128V96z M144,224H48V112h96V224z"/>
			<path d="M320,96H176v144h144V96z M304,224H192V112h112V224z"/>
			<path d="M464,96H336v144h128V96z M448,224h-96V112h96V224z"/>
		</g>
	</g>
</g>
<g>
</g>
<g>
</g>
<g>
</g>
<g>
</g>
<g>
</g>
<g>
</g>
<g>
</g>
<g>
</g>
<g>
</g>
<g>
</g>
<g>
</g>
<g>
</g>
<g>
</g>
<g>
</g>
<g>
</g>
</svg>
